<?xml version="1.0" encoding="utf-8"?>
<!-- Generator: Adobe Illustrator 26.3.0, SVG Export Plug-In . SVG Version: 6.00 Build 0)  -->
<svg version="1.1" id="Layer_1" xmlns="http://www.w3.org/2000/svg" xmlns:xlink="http://www.w3.org/1999/xlink" x="0px" y="0px"
	 viewBox="0 0 250 250" style="enable-background:new 0 0 250 250;" xml:space="preserve">
<style type="text/css">
	.st0{fill:#595A5A;}
	.st1{fill:#E02127;}
</style>
<g>
	<path class="st0" d="M114.3,38.5c-2.8-2.8-6.5-4.4-10.5-4.4H48.6c-8.2,0-14.9,6.7-14.9,14.9v55.1c0,8.2,6.7,14.9,14.9,14.9h55.1
		c8.2,0,14.9-6.7,14.9-14.9v-55C118.7,45.1,117.1,41.3,114.3,38.5z M109.7,49v55.1c0,3.3-2.6,5.9-5.9,5.9H48.6
		c-3.3,0-5.9-2.6-5.9-5.9v-55c0-3.3,2.6-5.9,5.9-5.9h55.2v-0.1C107.1,43.1,109.7,45.7,109.7,49z"/>
	<path class="st0" d="M201.4,34.1h-55.1c-8.2,0-14.9,6.7-14.9,14.9v55.1c0,8.2,6.7,14.9,14.9,14.9h55.1c8.2,0,14.9-6.7,14.9-14.9
		v-55C216.3,40.8,209.6,34.1,201.4,34.1z M207.3,49v55.1c0,3.3-2.6,5.9-5.9,5.9h-55.1c-3.3,0-5.9-2.6-5.9-5.9v-55
		c0-3.3,2.6-5.9,5.9-5.9h55.1v-0.1C204.7,43.1,207.3,45.7,207.3,49z"/>
	<path class="st0" d="M114.4,135.3c-2.8-2.8-6.6-4.4-10.6-4.4H48.6c-8.2,0-14.9,6.7-14.9,14.9v55.1c0,8.2,6.7,14.9,14.9,14.9h55.1
		c8.2,0,14.9-6.7,14.9-14.9v-55.1C118.7,141.9,117.2,138.1,114.4,135.3z M109.7,145.8v55.1c0,3.3-2.6,5.9-5.9,5.9H48.6
		c-3.3,0-5.9-2.6-5.9-5.9v-55.1c0-3.3,2.6-5.9,5.9-5.9h55.2C107.1,139.9,109.7,142.5,109.7,145.8z"/>
	<path class="st1" d="M201.4,130.9h-55.1c-8.2,0-14.9,6.7-14.9,14.9v55.1c0,8.2,6.7,14.9,14.9,14.9h55.1c8.2,0,14.9-6.7,14.9-14.9
		v-55.1C216.3,137.6,209.6,130.9,201.4,130.9z M207.3,145.8v55.1c0,3.3-2.6,5.9-5.9,5.9h-55.1c-3.3,0-5.9-2.6-5.9-5.9v-55.1
		c0-3.3,2.6-5.9,5.9-5.9h55.1C204.7,139.9,207.3,142.5,207.3,145.8z"/>
</g>
</svg>
