<svg xmlns="http://www.w3.org/2000/svg" width="22.196" height="24.214" viewBox="0 0 22.196 24.214"><defs><style>.a{fill:#6b7885;}.b{fill:#ce1126;}</style></defs><g transform="translate(-292 -678.5)"><path class="a" d="M73.805,3.415a.854.854,0,0,0,.854-.854V.854a.854.854,0,0,0-1.707,0V2.561A.854.854,0,0,0,73.805,3.415Zm8.537,1.707H61.854A.854.854,0,0,0,61,5.976V9.39a.854.854,0,0,0,.854.854h1.263L68.683,18.2v4.967a.854.854,0,0,0,.854.854h5.122a.854.854,0,0,0,.854-.854V18.2l5.567-7.952h1.263A.854.854,0,0,0,83.2,9.39V5.976A.854.854,0,0,0,82.342,5.122ZM73.959,17.438a.854.854,0,0,0-.154.49v4.382H70.39V17.927a.854.854,0,0,0-.154-.49L65.2,10.244H78.995Zm7.529-8.9H62.707V6.829H81.488ZM70.39,3.415a.854.854,0,0,0,.854-.854V.854a.854.854,0,1,0-1.707,0V2.561A.854.854,0,0,0,70.39,3.415Zm6.829,0a.854.854,0,0,0,.854-.854V.854a.854.854,0,1,0-1.707,0V2.561A.854.854,0,0,0,77.22,3.415Zm-10.244,0a.854.854,0,0,0,.854-.854V.854a.854.854,0,0,0-1.707,0V2.561A.854.854,0,0,0,66.976,3.415Z" transform="translate(231 678.698)"/><rect class="b" width="2" height="4" rx="1" transform="translate(297 678.5)"/><rect class="b" width="2" height="4" rx="1" transform="translate(300.4 678.5)"/><rect class="b" width="2" height="4" rx="1" transform="translate(303.8 678.5)"/><rect class="b" width="2" height="4" rx="1" transform="translate(307.2 678.5)"/></g></svg>